<svg width="30" height="10" viewBox="0 0 30 10" fill="none" xmlns="http://www.w3.org/2000/svg">
<path d="M3.75977 9H2.3418V2.15039L0.25 2.86523V1.66406L3.57812 0.439453H3.75977V9ZM10.5801 9H9.16211V2.15039L7.07031 2.86523V1.66406L10.3984 0.439453H10.5801V9ZM14.4941 7.5C14.7598 7.5 14.9648 7.57617 15.1094 7.72852C15.2539 7.87695 15.3262 8.06445 15.3262 8.29102C15.3262 8.51367 15.2539 8.69922 15.1094 8.84766C14.9648 8.99219 14.7598 9.06445 14.4941 9.06445C14.2402 9.06445 14.0391 8.99219 13.8906 8.84766C13.7422 8.70312 13.668 8.51758 13.668 8.29102C13.668 8.06445 13.7402 7.87695 13.8848 7.72852C14.0293 7.57617 14.2324 7.5 14.4941 7.5ZM14.4941 2.52539C14.7598 2.52539 14.9648 2.60156 15.1094 2.75391C15.2539 2.90234 15.3262 3.08984 15.3262 3.31641C15.3262 3.53906 15.2539 3.72461 15.1094 3.87305C14.9648 4.01758 14.7598 4.08984 14.4941 4.08984C14.2402 4.08984 14.0391 4.01758 13.8906 3.87305C13.7422 3.72852 13.668 3.54297 13.668 3.31641C13.668 3.08984 13.7402 2.90234 13.8848 2.75391C14.0293 2.60156 14.2324 2.52539 14.4941 2.52539ZM18.3789 4.08398H19.2461C19.6836 4.08008 20.0293 3.9668 20.2832 3.74414C20.541 3.52148 20.6699 3.19922 20.6699 2.77734C20.6699 2.37109 20.5625 2.05664 20.3477 1.83398C20.1367 1.60742 19.8125 1.49414 19.375 1.49414C18.9922 1.49414 18.6777 1.60547 18.4316 1.82812C18.1855 2.04688 18.0625 2.33398 18.0625 2.68945H16.6387C16.6387 2.25195 16.7539 1.85352 16.9844 1.49414C17.2188 1.13477 17.543 0.855469 17.957 0.65625C18.375 0.453125 18.8418 0.351562 19.3574 0.351562C20.209 0.351562 20.877 0.566406 21.3613 0.996094C21.8496 1.42188 22.0938 2.01562 22.0938 2.77734C22.0938 3.16016 21.9707 3.52148 21.7246 3.86133C21.4824 4.19727 21.168 4.45117 20.7812 4.62305C21.25 4.7832 21.6055 5.03516 21.8477 5.37891C22.0938 5.72266 22.2168 6.13281 22.2168 6.60938C22.2168 7.375 21.9531 7.98438 21.4258 8.4375C20.9023 8.89062 20.2129 9.11719 19.3574 9.11719C18.5371 9.11719 17.8652 8.89844 17.3418 8.46094C16.8184 8.02344 16.5566 7.44141 16.5566 6.71484H17.9805C17.9805 7.08984 18.1055 7.39453 18.3555 7.62891C18.6094 7.86328 18.9492 7.98047 19.375 7.98047C19.8164 7.98047 20.1641 7.86328 20.418 7.62891C20.6719 7.39453 20.7988 7.05469 20.7988 6.60938C20.7988 6.16016 20.666 5.81445 20.4004 5.57227C20.1348 5.33008 19.7402 5.20898 19.2168 5.20898H18.3789V4.08398ZM28.3691 5.95898H29.4297V7.10156H28.3691V9H26.9453V7.10156H23.2598L23.2188 6.23438L26.8984 0.46875H28.3691V5.95898ZM24.7129 5.95898H26.9453V2.39648L26.8398 2.58398L24.7129 5.95898Z" fill="white"/>
</svg>
