<svg width="14" height="19" viewBox="0 0 14 19" fill="none" xmlns="http://www.w3.org/2000/svg">
<path d="M4.86626 16.3071C4.86622 16.3118 4.86591 16.3165 4.86591 16.3212C4.86591 17.4999 5.82141 18.4554 7.00008 18.4554C8.17875 18.4554 9.13425 17.4999 9.13425 16.3212C9.13425 16.3165 9.13394 16.3118 9.1339 16.3071H4.86626Z" fill="#767676"/>
<path d="M13.8139 13.6396L11.8932 10.8181C11.8932 9.95434 11.8932 7.84384 11.8932 7.29788C11.8932 4.92388 10.2025 2.94501 7.95954 2.49906V1.41506C7.9595 0.885175 7.52993 0.455566 7 0.455566C6.47008 0.455566 6.04051 0.885175 6.04051 1.41506V2.4991C3.79755 2.94509 2.10686 4.92396 2.10686 7.29792C2.10686 8.22728 2.10686 10.2794 2.10686 10.8181L0.1861 13.6397C-0.0162238 13.9369 -0.0376199 14.3216 0.130493 14.6394C0.298606 14.9572 0.62864 15.1559 0.988183 15.1559H13.0118C13.3714 15.1559 13.7014 14.9571 13.8695 14.6394C14.0377 14.3215 14.0162 13.9368 13.8139 13.6396Z" fill="#767676"/>
</svg>
