<svg width="212" height="34" viewBox="0 0 212 34" fill="none" xmlns="http://www.w3.org/2000/svg">
<path d="M9.73438 5.21875H6.1875V15H4.22656V5.21875H0.710938V3.625H9.73438V5.21875ZM13.0703 15H11.1719V6.54688H13.0703V15ZM11.0547 4.35156C11.0547 4.0599 11.1458 3.81771 11.3281 3.625C11.5156 3.43229 11.7812 3.33594 12.125 3.33594C12.4688 3.33594 12.7344 3.43229 12.9219 3.625C13.1094 3.81771 13.2031 4.0599 13.2031 4.35156C13.2031 4.63802 13.1094 4.8776 12.9219 5.07031C12.7344 5.25781 12.4688 5.35156 12.125 5.35156C11.7812 5.35156 11.5156 5.25781 11.3281 5.07031C11.1458 4.8776 11.0547 4.63802 11.0547 4.35156ZM17.5234 4.49219V6.54688H19.0156V7.95312H17.5234V12.6719C17.5234 12.9948 17.5859 13.2292 17.7109 13.375C17.8411 13.5156 18.0703 13.5859 18.3984 13.5859C18.6172 13.5859 18.8385 13.5599 19.0625 13.5078V14.9766C18.6302 15.0964 18.2135 15.1562 17.8125 15.1562C16.3542 15.1562 15.625 14.3516 15.625 12.7422V7.95312H14.2344V6.54688H15.625V4.49219H17.5234ZM24.8984 8.28125C24.6484 8.23958 24.3906 8.21875 24.125 8.21875C23.2552 8.21875 22.6693 8.55208 22.3672 9.21875V15H20.4688V6.54688H22.2812L22.3281 7.49219C22.7865 6.75781 23.4219 6.39062 24.2344 6.39062C24.5052 6.39062 24.7292 6.42708 24.9062 6.5L24.8984 8.28125ZM29.6641 15.1562C28.4609 15.1562 27.4844 14.7786 26.7344 14.0234C25.9896 13.263 25.6172 12.2526 25.6172 10.9922V10.7578C25.6172 9.91406 25.7786 9.16146 26.1016 8.5C26.4297 7.83333 26.888 7.3151 27.4766 6.94531C28.0651 6.57552 28.7214 6.39062 29.4453 6.39062C30.5964 6.39062 31.4844 6.75781 32.1094 7.49219C32.7396 8.22656 33.0547 9.26562 33.0547 10.6094V11.375H27.5312C27.5885 12.0729 27.8203 12.625 28.2266 13.0312C28.638 13.4375 29.1536 13.6406 29.7734 13.6406C30.6432 13.6406 31.3516 13.2891 31.8984 12.5859L32.9219 13.5625C32.5833 14.0677 32.1302 14.4609 31.5625 14.7422C31 15.0182 30.3672 15.1562 29.6641 15.1562ZM29.4375 7.91406C28.9167 7.91406 28.4948 8.09635 28.1719 8.46094C27.8542 8.82552 27.651 9.33333 27.5625 9.98438H31.1797V9.84375C31.138 9.20833 30.9688 8.72917 30.6719 8.40625C30.375 8.07812 29.9635 7.91406 29.4375 7.91406ZM38.1641 10.7109C38.1641 9.40885 38.4661 8.36458 39.0703 7.57812C39.6745 6.78646 40.4844 6.39062 41.5 6.39062C42.3958 6.39062 43.1198 6.70312 43.6719 7.32812V3H45.5703V15H43.8516L43.7578 14.125C43.1901 14.8125 42.4323 15.1562 41.4844 15.1562C40.4948 15.1562 39.6927 14.7578 39.0781 13.9609C38.4688 13.1641 38.1641 12.0807 38.1641 10.7109ZM40.0625 10.875C40.0625 11.7344 40.2266 12.4062 40.5547 12.8906C40.888 13.3698 41.3594 13.6094 41.9688 13.6094C42.7448 13.6094 43.3125 13.263 43.6719 12.5703V8.96094C43.3229 8.28385 42.7604 7.94531 41.9844 7.94531C41.3698 7.94531 40.8958 8.1901 40.5625 8.67969C40.2292 9.16406 40.0625 9.89583 40.0625 10.875ZM51.2734 15.1562C50.0703 15.1562 49.0938 14.7786 48.3438 14.0234C47.599 13.263 47.2266 12.2526 47.2266 10.9922V10.7578C47.2266 9.91406 47.388 9.16146 47.7109 8.5C48.0391 7.83333 48.4974 7.3151 49.0859 6.94531C49.6745 6.57552 50.3307 6.39062 51.0547 6.39062C52.2057 6.39062 53.0938 6.75781 53.7188 7.49219C54.349 8.22656 54.6641 9.26562 54.6641 10.6094V11.375H49.1406C49.1979 12.0729 49.4297 12.625 49.8359 13.0312C50.2474 13.4375 50.763 13.6406 51.3828 13.6406C52.2526 13.6406 52.9609 13.2891 53.5078 12.5859L54.5312 13.5625C54.1927 14.0677 53.7396 14.4609 53.1719 14.7422C52.6094 15.0182 51.9766 15.1562 51.2734 15.1562ZM51.0469 7.91406C50.526 7.91406 50.1042 8.09635 49.7812 8.46094C49.4635 8.82552 49.2604 9.33333 49.1719 9.98438H52.7891V9.84375C52.7474 9.20833 52.5781 8.72917 52.2812 8.40625C51.9844 8.07812 51.5729 7.91406 51.0469 7.91406ZM62.1484 15H60.25V3H62.1484V15ZM69.2734 15C69.1901 14.8385 69.1172 14.5755 69.0547 14.2109C68.4505 14.8411 67.7109 15.1562 66.8359 15.1562C65.987 15.1562 65.2943 14.9141 64.7578 14.4297C64.2214 13.9453 63.9531 13.3464 63.9531 12.6328C63.9531 11.7318 64.2865 11.0417 64.9531 10.5625C65.625 10.0781 66.5833 9.83594 67.8281 9.83594H68.9922V9.28125C68.9922 8.84375 68.8698 8.49479 68.625 8.23438C68.3802 7.96875 68.0078 7.83594 67.5078 7.83594C67.0755 7.83594 66.7214 7.94531 66.4453 8.16406C66.1693 8.3776 66.0312 8.65104 66.0312 8.98438H64.1328C64.1328 8.52083 64.2865 8.08854 64.5938 7.6875C64.901 7.28125 65.3177 6.96354 65.8438 6.73438C66.375 6.50521 66.9661 6.39062 67.6172 6.39062C68.6068 6.39062 69.3958 6.64062 69.9844 7.14062C70.5729 7.63542 70.875 8.33333 70.8906 9.23438V13.0469C70.8906 13.8073 70.9974 14.4141 71.2109 14.8672V15H69.2734ZM67.1875 13.6328C67.5625 13.6328 67.9141 13.5417 68.2422 13.3594C68.5755 13.1771 68.8255 12.9323 68.9922 12.625V11.0312H67.9688C67.2656 11.0312 66.737 11.1536 66.3828 11.3984C66.0286 11.6432 65.8516 11.9896 65.8516 12.4375C65.8516 12.8021 65.9714 13.0938 66.2109 13.3125C66.4557 13.526 66.7812 13.6328 67.1875 13.6328ZM79.8438 12.5938L81.6328 6.54688H83.5938L80.6641 15H79.0156L76.0625 6.54688H78.0312L79.8438 12.5938ZM86.8047 15H84.9062V6.54688H86.8047V15ZM84.7891 4.35156C84.7891 4.0599 84.8802 3.81771 85.0625 3.625C85.25 3.43229 85.5156 3.33594 85.8594 3.33594C86.2031 3.33594 86.4688 3.43229 86.6562 3.625C86.8438 3.81771 86.9375 4.0599 86.9375 4.35156C86.9375 4.63802 86.8438 4.8776 86.6562 5.07031C86.4688 5.25781 86.2031 5.35156 85.8594 5.35156C85.5156 5.35156 85.25 5.25781 85.0625 5.07031C84.8802 4.8776 84.7891 4.63802 84.7891 4.35156ZM88.5234 10.7109C88.5234 9.40885 88.8255 8.36458 89.4297 7.57812C90.0339 6.78646 90.8438 6.39062 91.8594 6.39062C92.7552 6.39062 93.4792 6.70312 94.0312 7.32812V3H95.9297V15H94.2109L94.1172 14.125C93.5495 14.8125 92.7917 15.1562 91.8438 15.1562C90.8542 15.1562 90.0521 14.7578 89.4375 13.9609C88.8281 13.1641 88.5234 12.0807 88.5234 10.7109ZM90.4219 10.875C90.4219 11.7344 90.5859 12.4062 90.9141 12.8906C91.2474 13.3698 91.7188 13.6094 92.3281 13.6094C93.1042 13.6094 93.6719 13.263 94.0312 12.5703V8.96094C93.6823 8.28385 93.1198 7.94531 92.3438 7.94531C91.7292 7.94531 91.2552 8.1901 90.9219 8.67969C90.5885 9.16406 90.4219 9.89583 90.4219 10.875ZM101.633 15.1562C100.43 15.1562 99.4531 14.7786 98.7031 14.0234C97.9583 13.263 97.5859 12.2526 97.5859 10.9922V10.7578C97.5859 9.91406 97.7474 9.16146 98.0703 8.5C98.3984 7.83333 98.8568 7.3151 99.4453 6.94531C100.034 6.57552 100.69 6.39062 101.414 6.39062C102.565 6.39062 103.453 6.75781 104.078 7.49219C104.708 8.22656 105.023 9.26562 105.023 10.6094V11.375H99.5C99.5573 12.0729 99.7891 12.625 100.195 13.0312C100.607 13.4375 101.122 13.6406 101.742 13.6406C102.612 13.6406 103.32 13.2891 103.867 12.5859L104.891 13.5625C104.552 14.0677 104.099 14.4609 103.531 14.7422C102.969 15.0182 102.336 15.1562 101.633 15.1562ZM101.406 7.91406C100.885 7.91406 100.464 8.09635 100.141 8.46094C99.8229 8.82552 99.6198 9.33333 99.5312 9.98438H103.148V9.84375C103.107 9.20833 102.938 8.72917 102.641 8.40625C102.344 8.07812 101.932 7.91406 101.406 7.91406ZM101.836 3H104L101.836 5.36719H100.312L101.836 3ZM106.148 10.6953C106.148 9.86719 106.312 9.1224 106.641 8.46094C106.969 7.79427 107.43 7.28385 108.023 6.92969C108.617 6.57031 109.299 6.39062 110.07 6.39062C111.211 6.39062 112.135 6.75781 112.844 7.49219C113.557 8.22656 113.943 9.20052 114 10.4141L114.008 10.8594C114.008 11.6927 113.846 12.4375 113.523 13.0938C113.206 13.75 112.747 14.2578 112.148 14.6172C111.555 14.9766 110.867 15.1562 110.086 15.1562C108.893 15.1562 107.938 14.7604 107.219 13.9688C106.505 13.1719 106.148 12.112 106.148 10.7891V10.6953ZM108.047 10.8594C108.047 11.7292 108.227 12.4115 108.586 12.9062C108.945 13.3958 109.445 13.6406 110.086 13.6406C110.727 13.6406 111.224 13.3906 111.578 12.8906C111.938 12.3906 112.117 11.6589 112.117 10.6953C112.117 9.84115 111.932 9.16406 111.562 8.66406C111.198 8.16406 110.701 7.91406 110.07 7.91406C109.451 7.91406 108.958 8.16146 108.594 8.65625C108.229 9.14583 108.047 9.88021 108.047 10.8594Z" fill="black"/>
<path d="M7.12578 31H5.74219L2.19297 25.3508V31H0.809375V23.0375H2.19297L5.75312 28.7086V23.0375H7.12578V31ZM8.38359 27.9867C8.38359 27.407 8.49844 26.8857 8.72812 26.4227C8.95781 25.956 9.28047 25.5987 9.69609 25.3508C10.1117 25.0992 10.5893 24.9734 11.1289 24.9734C11.9273 24.9734 12.5745 25.2305 13.0703 25.7445C13.5698 26.2586 13.8396 26.9404 13.8797 27.7898L13.8852 28.1016C13.8852 28.6849 13.7721 29.2063 13.5461 29.6656C13.3237 30.125 13.0029 30.4805 12.5836 30.732C12.168 30.9836 11.6867 31.1094 11.1398 31.1094C10.3049 31.1094 9.63594 30.8323 9.13281 30.2781C8.63333 29.7203 8.38359 28.9784 8.38359 28.0523V27.9867ZM9.7125 28.1016C9.7125 28.7104 9.83828 29.188 10.0898 29.5344C10.3414 29.8771 10.6914 30.0484 11.1398 30.0484C11.5883 30.0484 11.9365 29.8734 12.1844 29.5234C12.4359 29.1734 12.5617 28.6612 12.5617 27.9867C12.5617 27.3888 12.4323 26.9148 12.1734 26.5648C11.9182 26.2148 11.5701 26.0398 11.1289 26.0398C10.6951 26.0398 10.3505 26.213 10.0953 26.5594C9.8401 26.9021 9.7125 27.4161 9.7125 28.1016ZM16.2586 25.0828L16.2969 25.7008C16.7125 25.2159 17.2812 24.9734 18.0031 24.9734C18.7943 24.9734 19.3357 25.276 19.6273 25.8813C20.0576 25.276 20.6628 24.9734 21.443 24.9734C22.0956 24.9734 22.5805 25.1539 22.8977 25.5148C23.2185 25.8758 23.3826 26.4081 23.3898 27.1117V31H22.0609V27.15C22.0609 26.7745 21.9789 26.4992 21.8148 26.3242C21.6508 26.1492 21.3792 26.0617 21 26.0617C20.6974 26.0617 20.4495 26.1438 20.2562 26.3078C20.0667 26.4682 19.9336 26.6797 19.857 26.9422L19.8625 31H18.5336V27.1063C18.5154 26.4099 18.1599 26.0617 17.4672 26.0617C16.9349 26.0617 16.5576 26.2786 16.3352 26.7125V31H15.0062V25.0828H16.2586ZM27.2945 27.9977C27.2945 27.0862 27.506 26.3552 27.9289 25.8047C28.3518 25.2505 28.9187 24.9734 29.6297 24.9734C30.2568 24.9734 30.7635 25.1922 31.15 25.6297V22.6H32.4789V31H31.2758L31.2102 30.3875C30.8128 30.8688 30.2823 31.1094 29.6187 31.1094C28.926 31.1094 28.3646 30.8305 27.9344 30.2727C27.5078 29.7148 27.2945 28.9565 27.2945 27.9977ZM28.6234 28.1125C28.6234 28.7141 28.7383 29.1844 28.968 29.5234C29.2013 29.8589 29.5312 30.0266 29.9578 30.0266C30.501 30.0266 30.8984 29.7841 31.15 29.2992V26.7727C30.9057 26.2987 30.512 26.0617 29.9687 26.0617C29.5385 26.0617 29.2068 26.2331 28.9734 26.5758C28.7401 26.9148 28.6234 27.4271 28.6234 28.1125ZM36.4711 31.1094C35.6289 31.1094 34.9453 30.8451 34.4203 30.3164C33.899 29.7841 33.6383 29.0768 33.6383 28.1945V28.0305C33.6383 27.4398 33.7513 26.913 33.9773 26.45C34.207 25.9833 34.5279 25.6206 34.9398 25.3617C35.3518 25.1029 35.8112 24.9734 36.318 24.9734C37.1237 24.9734 37.7453 25.2305 38.1828 25.7445C38.624 26.2586 38.8445 26.9859 38.8445 27.9266V28.4625H34.9781C35.0182 28.951 35.1805 29.3375 35.4648 29.6219C35.7529 29.9063 36.1138 30.0484 36.5477 30.0484C37.1565 30.0484 37.6523 29.8023 38.0352 29.3102L38.7516 29.9938C38.5146 30.3474 38.1974 30.6227 37.8 30.8195C37.4063 31.0128 36.9633 31.1094 36.4711 31.1094ZM36.3125 26.0398C35.9479 26.0398 35.6526 26.1674 35.4266 26.4227C35.2042 26.6779 35.062 27.0333 35 27.4891H37.532V27.3906C37.5029 26.9458 37.3844 26.6104 37.1766 26.3844C36.9688 26.1547 36.6807 26.0398 36.3125 26.0398ZM44.0836 31H42.7547V22.6H44.0836V31ZM45.8117 25.4L45.1336 24.9789C45.4617 24.5013 45.6312 23.9964 45.6422 23.4641V22.6H46.807V23.3547C46.807 23.7302 46.7104 24.1094 46.5172 24.4922C46.3276 24.8714 46.0924 25.174 45.8117 25.4ZM51.2258 31C51.1674 30.887 51.1164 30.7029 51.0727 30.4477C50.6497 30.8888 50.132 31.1094 49.5195 31.1094C48.9253 31.1094 48.4404 30.9398 48.0648 30.6008C47.6893 30.2617 47.5016 29.8424 47.5016 29.343C47.5016 28.7122 47.7349 28.2292 48.2016 27.8938C48.6719 27.5547 49.3427 27.3852 50.2141 27.3852H51.0289V26.9969C51.0289 26.6906 50.9432 26.4464 50.7719 26.2641C50.6005 26.0781 50.3398 25.9852 49.9898 25.9852C49.6872 25.9852 49.4393 26.0617 49.2461 26.2148C49.0529 26.3643 48.9563 26.5557 48.9563 26.7891H47.6273C47.6273 26.4646 47.7349 26.162 47.95 25.8813C48.1651 25.5969 48.4568 25.3745 48.825 25.2141C49.1969 25.0536 49.6107 24.9734 50.0664 24.9734C50.7591 24.9734 51.3115 25.1484 51.7234 25.4984C52.1354 25.8448 52.3469 26.3333 52.3578 26.9641V29.6328C52.3578 30.1651 52.4326 30.5898 52.582 30.907V31H51.2258ZM49.7656 30.043C50.0281 30.043 50.2742 29.9792 50.5039 29.8516C50.7372 29.724 50.9122 29.5526 51.0289 29.3375V28.2219H50.3125C49.8203 28.2219 49.4503 28.3076 49.2023 28.4789C48.9544 28.6503 48.8305 28.8927 48.8305 29.2063C48.8305 29.4615 48.9143 29.6656 49.082 29.8188C49.2534 29.9682 49.4813 30.043 49.7656 30.043ZM57.3344 30.4203C56.9443 30.8797 56.3901 31.1094 55.6719 31.1094C55.0302 31.1094 54.5435 30.9216 54.2117 30.5461C53.8836 30.1706 53.7195 29.6273 53.7195 28.9164V25.0828H55.0484V28.9C55.0484 29.651 55.3602 30.0266 55.9836 30.0266C56.6289 30.0266 57.0646 29.7951 57.2906 29.332V25.0828H58.6195V31H57.3672L57.3344 30.4203ZM61.6383 23.6445V25.0828H62.6828V26.0672H61.6383V29.3703C61.6383 29.5964 61.682 29.7604 61.7695 29.8625C61.8607 29.9609 62.0211 30.0102 62.2508 30.0102C62.4039 30.0102 62.5589 29.9919 62.7156 29.9555V30.9836C62.413 31.0674 62.1214 31.1094 61.8406 31.1094C60.8198 31.1094 60.3094 30.5461 60.3094 29.4195V26.0672H59.3359V25.0828H60.3094V23.6445H61.6383ZM66.3086 31.1094C65.4664 31.1094 64.7828 30.8451 64.2578 30.3164C63.7365 29.7841 63.4758 29.0768 63.4758 28.1945V28.0305C63.4758 27.4398 63.5888 26.913 63.8148 26.45C64.0445 25.9833 64.3654 25.6206 64.7773 25.3617C65.1893 25.1029 65.6487 24.9734 66.1555 24.9734C66.9612 24.9734 67.5828 25.2305 68.0203 25.7445C68.4615 26.2586 68.682 26.9859 68.682 27.9266V28.4625H64.8156C64.8557 28.951 65.018 29.3375 65.3023 29.6219C65.5904 29.9063 65.9513 30.0484 66.3852 30.0484C66.994 30.0484 67.4898 29.8023 67.8727 29.3102L68.5891 29.9938C68.3521 30.3474 68.0349 30.6227 67.6375 30.8195C67.2437 31.0128 66.8008 31.1094 66.3086 31.1094ZM66.15 26.0398C65.7854 26.0398 65.4901 26.1674 65.2641 26.4227C65.0417 26.6779 64.8995 27.0333 64.8375 27.4891H67.3695V27.3906C67.3404 26.9458 67.2219 26.6104 67.0141 26.3844C66.8062 26.1547 66.5182 26.0398 66.15 26.0398ZM73.3031 30.4203C72.913 30.8797 72.3589 31.1094 71.6406 31.1094C70.999 31.1094 70.5122 30.9216 70.1805 30.5461C69.8523 30.1706 69.6883 29.6273 69.6883 28.9164V25.0828H71.0172V28.9C71.0172 29.651 71.3289 30.0266 71.9523 30.0266C72.5977 30.0266 73.0333 29.7951 73.2594 29.332V25.0828H74.5883V31H73.3359L73.3031 30.4203ZM79.0398 26.2969C78.8648 26.2677 78.6844 26.2531 78.4984 26.2531C77.8896 26.2531 77.4794 26.4865 77.268 26.9531V31H75.9391V25.0828H77.2078L77.2406 25.7445C77.5615 25.2305 78.0063 24.9734 78.575 24.9734C78.7646 24.9734 78.9214 24.999 79.0453 25.05L79.0398 26.2969ZM82.7641 27.0953C82.7641 26.8839 82.8315 26.707 82.9664 26.5648C83.1013 26.4227 83.2909 26.3516 83.5352 26.3516C83.7794 26.3516 83.969 26.4227 84.1039 26.5648C84.2425 26.707 84.3117 26.8839 84.3117 27.0953C84.3117 27.3104 84.2406 27.4854 84.0984 27.6203C83.9563 27.7552 83.7685 27.8227 83.5352 27.8227C83.2982 27.8227 83.1104 27.7552 82.9719 27.6203C82.8333 27.4854 82.7641 27.3104 82.7641 27.0953ZM88.8891 27.0516L89.3211 23.0375H93.5977V24.1859H90.4258L90.207 26.0891C90.5753 25.8776 90.9909 25.7719 91.4539 25.7719C92.2122 25.7719 92.801 26.0143 93.2203 26.4992C93.6432 26.9841 93.8547 27.6367 93.8547 28.457C93.8547 29.2664 93.6214 29.9117 93.1547 30.393C92.688 30.8706 92.0482 31.1094 91.2352 31.1094C90.506 31.1094 89.9008 30.9034 89.4195 30.4914C88.9419 30.0758 88.6831 29.5289 88.643 28.8508H89.9281C89.9792 29.2372 90.1177 29.5344 90.3437 29.7422C90.5698 29.9464 90.8651 30.0484 91.2297 30.0484C91.638 30.0484 91.9552 29.9026 92.1812 29.6109C92.4109 29.3193 92.5258 28.9219 92.5258 28.4188C92.5258 27.9339 92.4 27.551 92.1484 27.2703C91.8969 26.9859 91.5505 26.8438 91.1094 26.8438C90.8687 26.8438 90.6646 26.8766 90.4969 26.9422C90.3292 27.0042 90.1469 27.1281 89.95 27.3141L88.8891 27.0516ZM100.089 27.6477C100.089 28.7924 99.874 29.6565 99.4437 30.2398C99.0172 30.8195 98.3664 31.1094 97.4914 31.1094C96.631 31.1094 95.982 30.8268 95.5445 30.2617C95.1107 29.693 94.8883 28.8526 94.8773 27.7406V26.3625C94.8773 25.2177 95.0906 24.3591 95.5172 23.7867C95.9474 23.2143 96.6018 22.9281 97.4805 22.9281C98.3518 22.9281 99.0008 23.207 99.4273 23.7648C99.8576 24.3227 100.078 25.1576 100.089 26.2695V27.6477ZM98.7602 26.1602C98.7602 25.4128 98.6581 24.8659 98.4539 24.5195C98.2497 24.1695 97.9253 23.9945 97.4805 23.9945C97.0466 23.9945 96.7276 24.1604 96.5234 24.4922C96.3193 24.8203 96.2117 25.3344 96.2008 26.0344V27.8391C96.2008 28.5828 96.3047 29.137 96.5125 29.5016C96.7203 29.8661 97.0466 30.0484 97.4914 30.0484C97.918 30.0484 98.2333 29.8807 98.4375 29.5453C98.6417 29.2063 98.7492 28.6776 98.7602 27.9594V26.1602ZM103.764 27.5602L102.862 28.5172V31H101.478V23.0375H102.862V26.7727L103.627 25.8266L105.957 23.0375H107.63L104.672 26.5648L107.8 31H106.159L103.764 27.5602ZM113.291 29.3156L114.543 25.0828H115.916L113.865 31H112.711L110.644 25.0828H112.022L113.291 29.3156ZM120.334 30.4203C119.944 30.8797 119.39 31.1094 118.672 31.1094C118.03 31.1094 117.543 30.9216 117.212 30.5461C116.884 30.1706 116.72 29.6273 116.72 28.9164V25.0828H118.048V28.9C118.048 29.651 118.36 30.0266 118.984 30.0266C119.629 30.0266 120.065 29.7951 120.291 29.332V25.0828H121.62V31H120.367L120.334 30.4203ZM125.579 31.1094C124.737 31.1094 124.053 30.8451 123.528 30.3164C123.007 29.7841 122.746 29.0768 122.746 28.1945V28.0305C122.746 27.4398 122.859 26.913 123.085 26.45C123.315 25.9833 123.636 25.6206 124.048 25.3617C124.46 25.1029 124.919 24.9734 125.426 24.9734C126.232 24.9734 126.853 25.2305 127.291 25.7445C127.732 26.2586 127.952 26.9859 127.952 27.9266V28.4625H124.086C124.126 28.951 124.288 29.3375 124.573 29.6219C124.861 29.9063 125.222 30.0484 125.655 30.0484C126.264 30.0484 126.76 29.8023 127.143 29.3102L127.859 29.9938C127.622 30.3474 127.305 30.6227 126.908 30.8195C126.514 31.0128 126.071 31.1094 125.579 31.1094ZM125.42 26.0398C125.056 26.0398 124.76 26.1674 124.534 26.4227C124.312 26.6779 124.17 27.0333 124.108 27.4891H126.64V27.3906C126.611 26.9458 126.492 26.6104 126.284 26.3844C126.077 26.1547 125.789 26.0398 125.42 26.0398ZM132.305 29.3922C132.305 29.1552 132.207 28.9747 132.01 28.8508C131.817 28.7268 131.494 28.6174 131.042 28.5227C130.59 28.4279 130.213 28.3076 129.91 28.1617C129.247 27.8409 128.915 27.376 128.915 26.7672C128.915 26.2568 129.13 25.8302 129.56 25.4875C129.99 25.1448 130.537 24.9734 131.201 24.9734C131.908 24.9734 132.479 25.1484 132.913 25.4984C133.35 25.8484 133.569 26.3023 133.569 26.8602H132.24C132.24 26.6049 132.145 26.3935 131.955 26.2258C131.766 26.0544 131.514 25.9688 131.201 25.9688C130.909 25.9688 130.67 26.0362 130.484 26.1711C130.302 26.306 130.211 26.4865 130.211 26.7125C130.211 26.9167 130.297 27.0753 130.468 27.1883C130.639 27.3013 130.986 27.4161 131.507 27.5328C132.028 27.6458 132.437 27.7826 132.732 27.943C133.031 28.0997 133.252 28.2893 133.394 28.5117C133.54 28.7341 133.613 29.0039 133.613 29.3211C133.613 29.8534 133.392 30.2854 132.951 30.6172C132.51 30.9453 131.932 31.1094 131.217 31.1094C130.732 31.1094 130.3 31.0219 129.921 30.8469C129.542 30.6719 129.247 30.4313 129.035 30.125C128.824 29.8188 128.718 29.4888 128.718 29.1352H130.009C130.027 29.4487 130.145 29.6911 130.364 29.8625C130.583 30.0302 130.873 30.1141 131.234 30.1141C131.584 30.1141 131.85 30.0484 132.032 29.9172C132.214 29.7823 132.305 29.6073 132.305 29.3922ZM137.659 27.0953C137.659 26.8839 137.727 26.707 137.862 26.5648C137.997 26.4227 138.186 26.3516 138.43 26.3516C138.675 26.3516 138.864 26.4227 138.999 26.5648C139.138 26.707 139.207 26.8839 139.207 27.0953C139.207 27.3104 139.136 27.4854 138.994 27.6203C138.852 27.7552 138.664 27.8227 138.43 27.8227C138.193 27.8227 138.006 27.7552 137.867 27.6203C137.729 27.4854 137.659 27.3104 137.659 27.0953ZM144.927 31H143.598V25.0828H144.927V31ZM143.516 23.5461C143.516 23.3419 143.58 23.1724 143.708 23.0375C143.839 22.9026 144.025 22.8352 144.266 22.8352C144.506 22.8352 144.692 22.9026 144.823 23.0375C144.955 23.1724 145.02 23.3419 145.02 23.5461C145.02 23.7466 144.955 23.9143 144.823 24.0492C144.692 24.1805 144.506 24.2461 144.266 24.2461C144.025 24.2461 143.839 24.1805 143.708 24.0492C143.58 23.9143 143.516 23.7466 143.516 23.5461ZM147.793 31H146.464V22.6H147.793V31ZM154.104 29.0969L155.307 25.0828H156.723L154.372 31.8969C154.011 32.8922 153.398 33.3898 152.534 33.3898C152.341 33.3898 152.128 33.357 151.895 33.2914V32.2633L152.146 32.2797C152.482 32.2797 152.733 32.2177 152.901 32.0937C153.072 31.9734 153.207 31.7693 153.305 31.4812L153.497 30.9727L151.419 25.0828H152.852L154.104 29.0969ZM163.816 31C163.758 30.887 163.707 30.7029 163.663 30.4477C163.24 30.8888 162.723 31.1094 162.11 31.1094C161.516 31.1094 161.031 30.9398 160.655 30.6008C160.28 30.2617 160.092 29.8424 160.092 29.343C160.092 28.7122 160.326 28.2292 160.792 27.8938C161.262 27.5547 161.933 27.3852 162.805 27.3852H163.62V26.9969C163.62 26.6906 163.534 26.4464 163.362 26.2641C163.191 26.0781 162.93 25.9852 162.58 25.9852C162.278 25.9852 162.03 26.0617 161.837 26.2148C161.643 26.3643 161.547 26.5557 161.547 26.7891H160.218C160.218 26.4646 160.326 26.162 160.541 25.8813C160.756 25.5969 161.047 25.3745 161.416 25.2141C161.787 25.0536 162.201 24.9734 162.657 24.9734C163.35 24.9734 163.902 25.1484 164.314 25.4984C164.726 25.8448 164.937 26.3333 164.948 26.9641V29.6328C164.948 30.1651 165.023 30.5898 165.173 30.907V31H163.816ZM162.356 30.043C162.619 30.043 162.865 29.9792 163.095 29.8516C163.328 29.724 163.503 29.5526 163.62 29.3375V28.2219H162.903C162.411 28.2219 162.041 28.3076 161.793 28.4789C161.545 28.6503 161.421 28.8927 161.421 29.2063C161.421 29.4615 161.505 29.6656 161.673 29.8188C161.844 29.9682 162.072 30.043 162.356 30.043ZM174.398 31H169.045V30.0867L171.697 27.1938C172.08 26.7672 172.351 26.4117 172.512 26.1273C172.676 25.8393 172.758 25.5513 172.758 25.2633C172.758 24.8841 172.65 24.5779 172.435 24.3445C172.224 24.1112 171.938 23.9945 171.577 23.9945C171.146 23.9945 170.813 24.1258 170.576 24.3883C170.339 24.6508 170.22 25.0099 170.22 25.4656H168.891C168.891 24.9807 169.001 24.5451 169.22 24.1586C169.442 23.7685 169.757 23.4659 170.166 23.2508C170.578 23.0357 171.052 22.9281 171.588 22.9281C172.36 22.9281 172.969 23.1232 173.414 23.5133C173.863 23.8997 174.087 24.4357 174.087 25.1211C174.087 25.5185 173.974 25.9359 173.748 26.3734C173.525 26.8073 173.159 27.3013 172.648 27.8555L170.702 29.9391H174.398V31ZM179.594 25.7281C180.028 25.225 180.576 24.9734 181.24 24.9734C182.501 24.9734 183.141 25.6935 183.159 27.1336V31H181.83V27.1828C181.83 26.7745 181.741 26.4865 181.562 26.3188C181.387 26.1474 181.129 26.0617 180.786 26.0617C180.254 26.0617 179.856 26.2987 179.594 26.7727V31H178.265V22.6H179.594V25.7281ZM187.113 31.1094C186.271 31.1094 185.587 30.8451 185.062 30.3164C184.541 29.7841 184.28 29.0768 184.28 28.1945V28.0305C184.28 27.4398 184.393 26.913 184.62 26.45C184.849 25.9833 185.17 25.6206 185.582 25.3617C185.994 25.1029 186.453 24.9734 186.96 24.9734C187.766 24.9734 188.387 25.2305 188.825 25.7445C189.266 26.2586 189.487 26.9859 189.487 27.9266V28.4625H185.62C185.66 28.951 185.823 29.3375 186.107 29.6219C186.395 29.9063 186.756 30.0484 187.19 30.0484C187.799 30.0484 188.295 29.8023 188.677 29.3102L189.394 29.9938C189.157 30.3474 188.84 30.6227 188.442 30.8195C188.048 31.0128 187.605 31.1094 187.113 31.1094ZM186.955 26.0398C186.59 26.0398 186.295 26.1674 186.069 26.4227C185.846 26.6779 185.704 27.0333 185.642 27.4891H188.174V27.3906C188.145 26.9458 188.027 26.6104 187.819 26.3844C187.611 26.1547 187.323 26.0398 186.955 26.0398ZM194.108 30.4203C193.718 30.8797 193.164 31.1094 192.445 31.1094C191.804 31.1094 191.317 30.9216 190.985 30.5461C190.657 30.1706 190.493 29.6273 190.493 28.9164V25.0828H191.822V28.9C191.822 29.651 192.134 30.0266 192.757 30.0266C193.402 30.0266 193.838 29.7951 194.064 29.332V25.0828H195.393V31H194.141L194.108 30.4203ZM199.845 26.2969C199.67 26.2677 199.489 26.2531 199.303 26.2531C198.694 26.2531 198.284 26.4865 198.073 26.9531V31H196.744V25.0828H198.013L198.045 25.7445C198.366 25.2305 198.811 24.9734 199.38 24.9734C199.569 24.9734 199.726 24.999 199.85 25.05L199.845 26.2969ZM203.18 31.1094C202.338 31.1094 201.655 30.8451 201.13 30.3164C200.608 29.7841 200.348 29.0768 200.348 28.1945V28.0305C200.348 27.4398 200.461 26.913 200.687 26.45C200.916 25.9833 201.237 25.6206 201.649 25.3617C202.061 25.1029 202.521 24.9734 203.027 24.9734C203.833 24.9734 204.455 25.2305 204.892 25.7445C205.333 26.2586 205.554 26.9859 205.554 27.9266V28.4625H201.688C201.728 28.951 201.89 29.3375 202.174 29.6219C202.462 29.9063 202.823 30.0484 203.257 30.0484C203.866 30.0484 204.362 29.8023 204.745 29.3102L205.461 29.9938C205.224 30.3474 204.907 30.6227 204.509 30.8195C204.116 31.0128 203.673 31.1094 203.18 31.1094ZM203.022 26.0398C202.657 26.0398 202.362 26.1674 202.136 26.4227C201.914 26.6779 201.771 27.0333 201.709 27.4891H204.241V27.3906C204.212 26.9458 204.094 26.6104 203.886 26.3844C203.678 26.1547 203.39 26.0398 203.022 26.0398ZM209.907 29.3922C209.907 29.1552 209.809 28.9747 209.612 28.8508C209.418 28.7268 209.096 28.6174 208.644 28.5227C208.192 28.4279 207.814 28.3076 207.512 28.1617C206.848 27.8409 206.516 27.376 206.516 26.7672C206.516 26.2568 206.732 25.8302 207.162 25.4875C207.592 25.1448 208.139 24.9734 208.802 24.9734C209.51 24.9734 210.08 25.1484 210.514 25.4984C210.952 25.8484 211.17 26.3023 211.17 26.8602H209.841C209.841 26.6049 209.747 26.3935 209.557 26.2258C209.367 26.0544 209.116 25.9688 208.802 25.9688C208.511 25.9688 208.272 26.0362 208.086 26.1711C207.904 26.306 207.813 26.4865 207.813 26.7125C207.813 26.9167 207.898 27.0753 208.07 27.1883C208.241 27.3013 208.587 27.4161 209.109 27.5328C209.63 27.6458 210.038 27.7826 210.334 27.943C210.633 28.0997 210.853 28.2893 210.995 28.5117C211.141 28.7341 211.214 29.0039 211.214 29.3211C211.214 29.8534 210.993 30.2854 210.552 30.6172C210.111 30.9453 209.533 31.1094 208.819 31.1094C208.334 31.1094 207.902 31.0219 207.523 30.8469C207.143 30.6719 206.848 30.4313 206.637 30.125C206.425 29.8188 206.32 29.4888 206.32 29.1352H207.61C207.628 29.4487 207.747 29.6911 207.966 29.8625C208.184 30.0302 208.474 30.1141 208.835 30.1141C209.185 30.1141 209.451 30.0484 209.634 29.9172C209.816 29.7823 209.907 29.6073 209.907 29.3922Z" fill="#777777"/>
</svg>
