<svg width="104" height="36" viewBox="0 0 104 36" fill="none" xmlns="http://www.w3.org/2000/svg">
<path d="M41.701 12.176H38.605V9.56H48.277V12.176H45.253V29H41.701V12.176ZM52.062 29.216C51.278 29.216 50.694 28.928 50.31 28.352C49.926 27.776 49.734 27.048 49.734 26.168V15.128H52.974V25.568C52.974 26 53.046 26.328 53.19 26.552C53.334 26.776 53.582 26.888 53.934 26.888C54.302 26.888 54.79 26.672 55.398 26.24V15.128H58.662V29H55.398V27.68C54.326 28.704 53.214 29.216 52.062 29.216ZM63.3338 12.176H60.2378V9.56H69.9098V12.176H66.8858V29H63.3338V12.176ZM73.6948 29.216C72.9108 29.216 72.3268 28.928 71.9428 28.352C71.5588 27.776 71.3668 27.048 71.3668 26.168V15.128H74.6068V25.568C74.6068 26 74.6788 26.328 74.8228 26.552C74.9668 26.776 75.2148 26.888 75.5668 26.888C75.9348 26.888 76.4228 26.672 77.0308 26.24V15.128H80.2948V29H77.0308V27.68C75.9588 28.704 74.8468 29.216 73.6948 29.216ZM88.7826 29.216C87.8706 29.216 86.9746 28.8 86.0946 27.968V29H82.8546V9.56H86.0946V16.184C86.9746 15.336 87.9186 14.912 88.9266 14.912C90.0466 14.912 90.8386 15.376 91.3026 16.304C91.7666 17.232 91.9986 18.312 91.9986 19.544V24.248C91.9986 25.736 91.7346 26.936 91.2066 27.848C90.6946 28.76 89.8866 29.216 88.7826 29.216ZM87.5346 26.936C88.0146 26.936 88.3346 26.712 88.4946 26.264C88.6546 25.816 88.7346 25.184 88.7346 24.368V19.376C88.7346 18.672 88.6466 18.12 88.4706 17.72C88.2946 17.304 87.9826 17.096 87.5346 17.096C87.0706 17.096 86.5906 17.288 86.0946 17.672V26.456C86.5426 26.776 87.0226 26.936 87.5346 26.936ZM98.4441 29.216C96.9081 29.216 95.7801 28.792 95.0601 27.944C94.3401 27.08 93.9801 25.808 93.9801 24.128V20C93.9801 18.304 94.3401 17.032 95.0601 16.184C95.7961 15.336 96.9241 14.912 98.4441 14.912C100.012 14.912 101.116 15.352 101.756 16.232C102.412 17.112 102.74 18.44 102.74 20.216V22.208H97.2201V24.944C97.2201 25.616 97.3161 26.104 97.5081 26.408C97.7161 26.712 98.0361 26.864 98.4681 26.864C98.8841 26.864 99.1801 26.72 99.3561 26.432C99.5481 26.128 99.6441 25.672 99.6441 25.064V23.888H102.716V24.848C102.716 26.272 102.356 27.36 101.636 28.112C100.916 28.848 99.8521 29.216 98.4441 29.216ZM99.6441 20.6V19.28C99.6441 18.56 99.5561 18.048 99.3801 17.744C99.2041 17.424 98.8921 17.264 98.4441 17.264C97.9801 17.264 97.6601 17.432 97.4841 17.768C97.3081 18.104 97.2201 18.728 97.2201 19.64V20.6H99.6441Z" fill="black"/>
<path d="M30 18C30 9.72581 23.2742 3 15 3C6.72581 3 0 9.72581 0 18C0 26.2742 6.72581 33 15 33C23.2742 33 30 26.2742 30 18Z" fill="#F73974"/>
<path d="M15 33C23.2742 33 30 26.2742 30 18C30 9.72581 23.2742 3 15 3" fill="#DD0772"/>
<path d="M4.4032 28.5968C10.258 34.4517 19.7419 34.4517 25.5967 28.5968C31.4516 22.742 31.4516 13.2581 25.5967 7.4033" fill="#ED266E"/>
<path d="M12.871 11.1775C12.7742 11.1775 12.6291 11.2258 12.5323 11.2742C12.2904 11.371 12.0968 11.6613 12.0968 11.9033V20.9517C12.0968 21.1936 12.2904 21.4839 12.5323 21.5807C12.7742 21.6775 13.0645 21.6775 13.3065 21.5323L19.4516 16.9839C19.6452 16.8388 19.742 16.6452 19.742 16.4033C19.742 16.1613 19.6452 15.9678 19.4516 15.8226L13.3065 11.2742C13.1613 11.2258 13.0162 11.1775 12.871 11.1775Z" fill="#DD0772"/>
<path d="M12.871 12.7743C12.7742 12.7743 12.6291 12.8226 12.5323 12.871C12.2904 12.9678 12.0968 13.2581 12.0968 13.5001V22.5485C12.0968 22.7904 12.2904 23.0807 12.5323 23.1775C12.7742 23.2743 13.0645 23.2743 13.3065 23.1291L19.4516 18.5807C19.6452 18.4356 19.742 18.242 19.742 18.0001C19.742 17.7581 19.6452 17.5646 19.4516 17.4194L13.3065 12.871C13.1613 12.8226 13.0162 12.7743 12.871 12.7743Z" fill="white"/>
</svg>
