<svg width="120" height="35" viewBox="0 0 120 35" fill="none" xmlns="http://www.w3.org/2000/svg">
<path d="M60.0002 0L52 6.99854L52.7973 7.93474L53.8219 7.03785V16H58.3975V11.2037H60.0002H61.6028V16H66.1784V7.03802L67.2029 7.93501L68 6.99872L60.0002 0Z" fill="#E21B1B"/>
<path d="M40.9844 28.3516H36.5781L35.6562 31H33.6016L37.8984 19.625H39.6719L43.9766 31H41.9141L40.9844 28.3516ZM37.1328 26.7578H40.4297L38.7812 22.0391L37.1328 26.7578ZM48.5625 29.6406C49.0365 29.6406 49.4297 29.5026 49.7422 29.2266C50.0547 28.9505 50.2214 28.6094 50.2422 28.2031H52.0312C52.0104 28.7292 51.8464 29.2214 51.5391 29.6797C51.2318 30.1328 50.8151 30.4922 50.2891 30.7578C49.763 31.0234 49.1953 31.1562 48.5859 31.1562C47.4036 31.1562 46.4661 30.7734 45.7734 30.0078C45.0807 29.2422 44.7344 28.1849 44.7344 26.8359V26.6406C44.7344 25.3542 45.0781 24.3255 45.7656 23.5547C46.4531 22.7786 47.3906 22.3906 48.5781 22.3906C49.5833 22.3906 50.401 22.6849 51.0312 23.2734C51.6667 23.8568 52 24.625 52.0312 25.5781H50.2422C50.2214 25.0938 50.0547 24.6953 49.7422 24.3828C49.4349 24.0703 49.0417 23.9141 48.5625 23.9141C47.9479 23.9141 47.474 24.138 47.1406 24.5859C46.8073 25.0286 46.638 25.7031 46.6328 26.6094V26.9141C46.6328 27.8307 46.7969 28.5156 47.125 28.9688C47.4583 29.4167 47.9375 29.6406 48.5625 29.6406ZM56.9375 29.6406C57.4115 29.6406 57.8047 29.5026 58.1172 29.2266C58.4297 28.9505 58.5964 28.6094 58.6172 28.2031H60.4062C60.3854 28.7292 60.2214 29.2214 59.9141 29.6797C59.6068 30.1328 59.1901 30.4922 58.6641 30.7578C58.138 31.0234 57.5703 31.1562 56.9609 31.1562C55.7786 31.1562 54.8411 30.7734 54.1484 30.0078C53.4557 29.2422 53.1094 28.1849 53.1094 26.8359V26.6406C53.1094 25.3542 53.4531 24.3255 54.1406 23.5547C54.8281 22.7786 55.7656 22.3906 56.9531 22.3906C57.9583 22.3906 58.776 22.6849 59.4062 23.2734C60.0417 23.8568 60.375 24.625 60.4062 25.5781H58.6172C58.5964 25.0938 58.4297 24.6953 58.1172 24.3828C57.8099 24.0703 57.4167 23.9141 56.9375 23.9141C56.3229 23.9141 55.849 24.138 55.5156 24.5859C55.1823 25.0286 55.013 25.7031 55.0078 26.6094V26.9141C55.0078 27.8307 55.1719 28.5156 55.5 28.9688C55.8333 29.4167 56.3125 29.6406 56.9375 29.6406ZM66.9609 30.1719C66.4036 30.8281 65.612 31.1562 64.5859 31.1562C63.6693 31.1562 62.974 30.888 62.5 30.3516C62.0312 29.8151 61.7969 29.0391 61.7969 28.0234V22.5469H63.6953V28C63.6953 29.0729 64.1406 29.6094 65.0312 29.6094C65.9531 29.6094 66.5755 29.2786 66.8984 28.6172V22.5469H68.7969V31H67.0078L66.9609 30.1719ZM74.4531 31.1562C73.25 31.1562 72.2734 30.7786 71.5234 30.0234C70.7786 29.263 70.4062 28.2526 70.4062 26.9922V26.7578C70.4062 25.9141 70.5677 25.1615 70.8906 24.5C71.2188 23.8333 71.6771 23.3151 72.2656 22.9453C72.8542 22.5755 73.5104 22.3906 74.2344 22.3906C75.3854 22.3906 76.2734 22.7578 76.8984 23.4922C77.5286 24.2266 77.8438 25.2656 77.8438 26.6094V27.375H72.3203C72.3776 28.0729 72.6094 28.625 73.0156 29.0312C73.4271 29.4375 73.9427 29.6406 74.5625 29.6406C75.4323 29.6406 76.1406 29.2891 76.6875 28.5859L77.7109 29.5625C77.3724 30.0677 76.9193 30.4609 76.3516 30.7422C75.7891 31.0182 75.1562 31.1562 74.4531 31.1562ZM74.2266 23.9141C73.7057 23.9141 73.2839 24.0964 72.9609 24.4609C72.6432 24.8255 72.4401 25.3333 72.3516 25.9844H75.9688V25.8438C75.9271 25.2083 75.7578 24.7292 75.4609 24.4062C75.1641 24.0781 74.7526 23.9141 74.2266 23.9141ZM81.3438 31H79.4453V22.5469H81.3438V31ZM79.3281 20.3516C79.3281 20.0599 79.4193 19.8177 79.6016 19.625C79.7891 19.4323 80.0547 19.3359 80.3984 19.3359C80.7422 19.3359 81.0078 19.4323 81.1953 19.625C81.3828 19.8177 81.4766 20.0599 81.4766 20.3516C81.4766 20.638 81.3828 20.8776 81.1953 21.0703C81.0078 21.2578 80.7422 21.3516 80.3984 21.3516C80.0547 21.3516 79.7891 21.2578 79.6016 21.0703C79.4193 20.8776 79.3281 20.638 79.3281 20.3516ZM85.4375 31H83.5391V19H85.4375V31Z" fill="#E21B1B"/>
</svg>
