<svg width="120" height="35" viewBox="0 0 120 35" fill="none" xmlns="http://www.w3.org/2000/svg">
<g clip-path="url(#clip0)">
<path d="M66.6436 7.32534L54.1276 0.10355C53.6136 -0.192003 52.9711 0.180651 52.9711 0.771759V15.2282C52.9711 15.8193 53.6136 16.192 54.1276 15.8964L66.6436 8.67461C67.1577 8.36608 67.1577 7.6209 66.6436 7.32534Z" fill="black"/>
</g>
<path d="M17.4219 28.3516H13.0156L12.0938 31H10.0391L14.3359 19.625H16.1094L20.4141 31H18.3516L17.4219 28.3516ZM13.5703 26.7578H16.8672L15.2188 22.0391L13.5703 26.7578ZM28.9453 26.8594C28.9453 28.1719 28.651 29.2161 28.0625 29.9922C27.4792 30.7682 26.6745 31.1562 25.6484 31.1562C24.6589 31.1562 23.888 30.7995 23.3359 30.0859L23.2422 31H21.5234V19H23.4219V23.3594C23.9688 22.7135 24.7057 22.3906 25.6328 22.3906C26.6641 22.3906 27.474 22.7734 28.0625 23.5391C28.651 24.3047 28.9453 25.375 28.9453 26.75V26.8594ZM27.0469 26.6953C27.0469 25.7786 26.8854 25.0911 26.5625 24.6328C26.2396 24.1745 25.7708 23.9453 25.1562 23.9453C24.3333 23.9453 23.7552 24.3047 23.4219 25.0234V28.5078C23.7604 29.2422 24.3438 29.6094 25.1719 29.6094C25.7656 29.6094 26.224 29.388 26.5469 28.9453C26.8698 28.5026 27.0365 27.8333 27.0469 26.9375V26.6953ZM30.1875 26.6953C30.1875 25.8672 30.3516 25.1224 30.6797 24.4609C31.0078 23.7943 31.4688 23.2839 32.0625 22.9297C32.6562 22.5703 33.3385 22.3906 34.1094 22.3906C35.25 22.3906 36.1745 22.7578 36.8828 23.4922C37.5964 24.2266 37.9818 25.2005 38.0391 26.4141L38.0469 26.8594C38.0469 27.6927 37.8854 28.4375 37.5625 29.0938C37.2448 29.75 36.7865 30.2578 36.1875 30.6172C35.5938 30.9766 34.9062 31.1562 34.125 31.1562C32.9323 31.1562 31.9766 30.7604 31.2578 29.9688C30.5443 29.1719 30.1875 28.112 30.1875 26.7891V26.6953ZM32.0859 26.8594C32.0859 27.7292 32.2656 28.4115 32.625 28.9062C32.9844 29.3958 33.4844 29.6406 34.125 29.6406C34.7656 29.6406 35.263 29.3906 35.6172 28.8906C35.9766 28.3906 36.1562 27.6589 36.1562 26.6953C36.1562 25.8411 35.9714 25.1641 35.6016 24.6641C35.237 24.1641 34.7396 23.9141 34.1094 23.9141C33.4896 23.9141 32.9974 24.1615 32.6328 24.6562C32.2682 25.1458 32.0859 25.8802 32.0859 26.8594ZM41.4141 22.5469L41.4688 23.5234C42.0938 22.7682 42.9141 22.3906 43.9297 22.3906C45.6901 22.3906 46.5859 23.3984 46.6172 25.4141V31H44.7188V25.5234C44.7188 24.987 44.6016 24.5911 44.3672 24.3359C44.138 24.0755 43.7604 23.9453 43.2344 23.9453C42.4688 23.9453 41.8984 24.2917 41.5234 24.9844V31H39.625V22.5469H41.4141ZM50.3203 22.5469L50.375 23.5234C51 22.7682 51.8203 22.3906 52.8359 22.3906C54.5964 22.3906 55.4922 23.3984 55.5234 25.4141V31H53.625V25.5234C53.625 24.987 53.5078 24.5911 53.2734 24.3359C53.0443 24.0755 52.6667 23.9453 52.1406 23.9453C51.375 23.9453 50.8047 24.2917 50.4297 24.9844V31H48.5312V22.5469H50.3203ZM61.1875 31.1562C59.9844 31.1562 59.0078 30.7786 58.2578 30.0234C57.513 29.263 57.1406 28.2526 57.1406 26.9922V26.7578C57.1406 25.9141 57.3021 25.1615 57.625 24.5C57.9531 23.8333 58.4115 23.3151 59 22.9453C59.5885 22.5755 60.2448 22.3906 60.9688 22.3906C62.1198 22.3906 63.0078 22.7578 63.6328 23.4922C64.263 24.2266 64.5781 25.2656 64.5781 26.6094V27.375H59.0547C59.112 28.0729 59.3438 28.625 59.75 29.0312C60.1615 29.4375 60.6771 29.6406 61.2969 29.6406C62.1667 29.6406 62.875 29.2891 63.4219 28.5859L64.4453 29.5625C64.1068 30.0677 63.6536 30.4609 63.0859 30.7422C62.5234 31.0182 61.8906 31.1562 61.1875 31.1562ZM60.9609 23.9141C60.4401 23.9141 60.0182 24.0964 59.6953 24.4609C59.3776 24.8255 59.1745 25.3333 59.0859 25.9844H62.7031V25.8438C62.6615 25.2083 62.4922 24.7292 62.1953 24.4062C61.8984 24.0781 61.487 23.9141 60.9609 23.9141ZM67.8438 22.5469L67.8984 23.4297C68.4922 22.737 69.3047 22.3906 70.3359 22.3906C71.4661 22.3906 72.2396 22.8229 72.6562 23.6875C73.2708 22.8229 74.1354 22.3906 75.25 22.3906C76.1823 22.3906 76.875 22.6484 77.3281 23.1641C77.7865 23.6797 78.0208 24.4401 78.0312 25.4453V31H76.1328V25.5C76.1328 24.9635 76.0156 24.5703 75.7812 24.3203C75.5469 24.0703 75.1589 23.9453 74.6172 23.9453C74.1849 23.9453 73.8307 24.0625 73.5547 24.2969C73.2839 24.526 73.0938 24.8281 72.9844 25.2031L72.9922 31H71.0938V25.4375C71.0677 24.4427 70.5599 23.9453 69.5703 23.9453C68.8099 23.9453 68.2708 24.2552 67.9531 24.875V31H66.0547V22.5469H67.8438ZM83.7031 31.1562C82.5 31.1562 81.5234 30.7786 80.7734 30.0234C80.0286 29.263 79.6562 28.2526 79.6562 26.9922V26.7578C79.6562 25.9141 79.8177 25.1615 80.1406 24.5C80.4688 23.8333 80.9271 23.3151 81.5156 22.9453C82.1042 22.5755 82.7604 22.3906 83.4844 22.3906C84.6354 22.3906 85.5234 22.7578 86.1484 23.4922C86.7786 24.2266 87.0938 25.2656 87.0938 26.6094V27.375H81.5703C81.6276 28.0729 81.8594 28.625 82.2656 29.0312C82.6771 29.4375 83.1927 29.6406 83.8125 29.6406C84.6823 29.6406 85.3906 29.2891 85.9375 28.5859L86.9609 29.5625C86.6224 30.0677 86.1693 30.4609 85.6016 30.7422C85.0391 31.0182 84.4062 31.1562 83.7031 31.1562ZM83.4766 23.9141C82.9557 23.9141 82.5339 24.0964 82.2109 24.4609C81.8932 24.8255 81.6901 25.3333 81.6016 25.9844H85.2188V25.8438C85.1771 25.2083 85.0078 24.7292 84.7109 24.4062C84.4141 24.0781 84.0026 23.9141 83.4766 23.9141ZM90.3359 22.5469L90.3906 23.5234C91.0156 22.7682 91.8359 22.3906 92.8516 22.3906C94.612 22.3906 95.5078 23.3984 95.5391 25.4141V31H93.6406V25.5234C93.6406 24.987 93.5234 24.5911 93.2891 24.3359C93.0599 24.0755 92.6823 23.9453 92.1562 23.9453C91.3906 23.9453 90.8203 24.2917 90.4453 24.9844V31H88.5469V22.5469H90.3359ZM99.8594 20.4922V22.5469H101.352V23.9531H99.8594V28.6719C99.8594 28.9948 99.9219 29.2292 100.047 29.375C100.177 29.5156 100.406 29.5859 100.734 29.5859C100.953 29.5859 101.174 29.5599 101.398 29.5078V30.9766C100.966 31.0964 100.549 31.1562 100.148 31.1562C98.6901 31.1562 97.9609 30.3516 97.9609 28.7422V23.9531H96.5703V22.5469H97.9609V20.4922H99.8594ZM107.547 28.7031C107.547 28.3646 107.406 28.1068 107.125 27.9297C106.849 27.7526 106.388 27.5964 105.742 27.4609C105.096 27.3255 104.557 27.1536 104.125 26.9453C103.177 26.487 102.703 25.8229 102.703 24.9531C102.703 24.224 103.01 23.6146 103.625 23.125C104.24 22.6354 105.021 22.3906 105.969 22.3906C106.979 22.3906 107.794 22.6406 108.414 23.1406C109.039 23.6406 109.352 24.2891 109.352 25.0859H107.453C107.453 24.7214 107.318 24.4193 107.047 24.1797C106.776 23.9349 106.417 23.8125 105.969 23.8125C105.552 23.8125 105.211 23.9089 104.945 24.1016C104.685 24.2943 104.555 24.5521 104.555 24.875C104.555 25.1667 104.677 25.3932 104.922 25.5547C105.167 25.7161 105.661 25.8802 106.406 26.0469C107.151 26.2083 107.734 26.4036 108.156 26.6328C108.583 26.8568 108.898 27.1276 109.102 27.4453C109.31 27.763 109.414 28.1484 109.414 28.6016C109.414 29.362 109.099 29.9792 108.469 30.4531C107.839 30.9219 107.013 31.1562 105.992 31.1562C105.299 31.1562 104.682 31.0312 104.141 30.7812C103.599 30.5312 103.177 30.1875 102.875 29.75C102.573 29.3125 102.422 28.8411 102.422 28.3359H104.266C104.292 28.7839 104.461 29.1302 104.773 29.375C105.086 29.6146 105.5 29.7344 106.016 29.7344C106.516 29.7344 106.896 29.6406 107.156 29.4531C107.417 29.2604 107.547 29.0104 107.547 28.7031Z" fill="black"/>
<defs>
<clipPath id="clip0">
<rect width="16" height="16" fill="white" transform="translate(52)"/>
</clipPath>
</defs>
</svg>
