<svg width="120" height="35" viewBox="0 0 120 35" fill="none" xmlns="http://www.w3.org/2000/svg">
<path d="M65.4821 7.98592L65.4727 7.9483C64.0874 3.60429 59.9596 0.520272 59.7841 0.391762L59.2513 0L59.2858 0.658161C59.2858 0.686395 59.3829 3.23762 56.91 5.35944C54.224 7.6662 54.2397 9.56867 54.246 10.5904L54.2492 10.7315C54.2492 13.5177 56.2939 15.601 59.2193 15.9445C59.0601 15.9195 58.8974 15.887 58.7342 15.8371C57.7908 15.5456 57.2392 14.8843 57.1326 13.9315L57.1075 13.7434C57.0229 13.0069 56.9132 12.0948 58.5242 10.3648C59.1259 9.71912 59.6494 9.02331 60.0819 8.2993L60.2981 7.93578L60.5833 8.24917C61.4358 9.17999 62.0877 10.1203 62.5265 11.0354C62.9308 11.8441 62.9559 13.1229 62.9246 13.3955C62.771 14.7871 61.7649 15.8245 60.4172 15.9749C60.3294 15.985 60.1979 15.9947 60.0369 15.9983C60.051 15.9984 60.0645 16 60.0787 16C63.2631 16 65.7547 13.4394 65.7547 10.1704C65.7548 9.38691 65.4915 8.04232 65.4821 7.98592Z" fill="black"/>
<path d="M30.2031 21.2188H26.6562V31H24.6953V21.2188H21.1797V19.625H30.2031V21.2188ZM34.5391 31.1562C33.3359 31.1562 32.3594 30.7786 31.6094 30.0234C30.8646 29.263 30.4922 28.2526 30.4922 26.9922V26.7578C30.4922 25.9141 30.6536 25.1615 30.9766 24.5C31.3047 23.8333 31.763 23.3151 32.3516 22.9453C32.9401 22.5755 33.5964 22.3906 34.3203 22.3906C35.4714 22.3906 36.3594 22.7578 36.9844 23.4922C37.6146 24.2266 37.9297 25.2656 37.9297 26.6094V27.375H32.4062C32.4635 28.0729 32.6953 28.625 33.1016 29.0312C33.513 29.4375 34.0286 29.6406 34.6484 29.6406C35.5182 29.6406 36.2266 29.2891 36.7734 28.5859L37.7969 29.5625C37.4583 30.0677 37.0052 30.4609 36.4375 30.7422C35.875 31.0182 35.2422 31.1562 34.5391 31.1562ZM34.3125 23.9141C33.7917 23.9141 33.3698 24.0964 33.0469 24.4609C32.7292 24.8255 32.526 25.3333 32.4375 25.9844H36.0547V25.8438C36.013 25.2083 35.8438 24.7292 35.5469 24.4062C35.25 24.0781 34.8385 23.9141 34.3125 23.9141ZM41.1719 22.5469L41.2266 23.5234C41.8516 22.7682 42.6719 22.3906 43.6875 22.3906C45.4479 22.3906 46.3438 23.3984 46.375 25.4141V31H44.4766V25.5234C44.4766 24.987 44.3594 24.5911 44.125 24.3359C43.8958 24.0755 43.5182 23.9453 42.9922 23.9453C42.2266 23.9453 41.6562 24.2917 41.2812 24.9844V31H39.3828V22.5469H41.1719ZM47.9609 26.7109C47.9609 25.4089 48.263 24.3646 48.8672 23.5781C49.4714 22.7865 50.2812 22.3906 51.2969 22.3906C52.1927 22.3906 52.9167 22.7031 53.4688 23.3281V19H55.3672V31H53.6484L53.5547 30.125C52.987 30.8125 52.2292 31.1562 51.2812 31.1562C50.2917 31.1562 49.4896 30.7578 48.875 29.9609C48.2656 29.1641 47.9609 28.0807 47.9609 26.7109ZM49.8594 26.875C49.8594 27.7344 50.0234 28.4062 50.3516 28.8906C50.6849 29.3698 51.1562 29.6094 51.7656 29.6094C52.5417 29.6094 53.1094 29.263 53.4688 28.5703V24.9609C53.1198 24.2839 52.5573 23.9453 51.7812 23.9453C51.1667 23.9453 50.6927 24.1901 50.3594 24.6797C50.026 25.1641 49.8594 25.8958 49.8594 26.875ZM62.3984 31C62.3151 30.8385 62.2422 30.5755 62.1797 30.2109C61.5755 30.8411 60.8359 31.1562 59.9609 31.1562C59.112 31.1562 58.4193 30.9141 57.8828 30.4297C57.3464 29.9453 57.0781 29.3464 57.0781 28.6328C57.0781 27.7318 57.4115 27.0417 58.0781 26.5625C58.75 26.0781 59.7083 25.8359 60.9531 25.8359H62.1172V25.2812C62.1172 24.8438 61.9948 24.4948 61.75 24.2344C61.5052 23.9688 61.1328 23.8359 60.6328 23.8359C60.2005 23.8359 59.8464 23.9453 59.5703 24.1641C59.2943 24.3776 59.1562 24.651 59.1562 24.9844H57.2578C57.2578 24.5208 57.4115 24.0885 57.7188 23.6875C58.026 23.2812 58.4427 22.9635 58.9688 22.7344C59.5 22.5052 60.0911 22.3906 60.7422 22.3906C61.7318 22.3906 62.5208 22.6406 63.1094 23.1406C63.6979 23.6354 64 24.3333 64.0156 25.2344V29.0469C64.0156 29.8073 64.1224 30.4141 64.3359 30.8672V31H62.3984ZM60.3125 29.6328C60.6875 29.6328 61.0391 29.5417 61.3672 29.3594C61.7005 29.1771 61.9505 28.9323 62.1172 28.625V27.0312H61.0938C60.3906 27.0312 59.862 27.1536 59.5078 27.3984C59.1536 27.6432 58.9766 27.9896 58.9766 28.4375C58.9766 28.8021 59.0964 29.0938 59.3359 29.3125C59.5807 29.526 59.9062 29.6328 60.3125 29.6328ZM67.7656 22.5469L67.8203 23.5234C68.4453 22.7682 69.2656 22.3906 70.2812 22.3906C72.0417 22.3906 72.9375 23.3984 72.9688 25.4141V31H71.0703V25.5234C71.0703 24.987 70.9531 24.5911 70.7188 24.3359C70.4896 24.0755 70.112 23.9453 69.5859 23.9453C68.8203 23.9453 68.25 24.2917 67.875 24.9844V31H65.9766V22.5469H67.7656ZM78.3828 29.6406C78.8568 29.6406 79.25 29.5026 79.5625 29.2266C79.875 28.9505 80.0417 28.6094 80.0625 28.2031H81.8516C81.8307 28.7292 81.6667 29.2214 81.3594 29.6797C81.0521 30.1328 80.6354 30.4922 80.1094 30.7578C79.5833 31.0234 79.0156 31.1562 78.4062 31.1562C77.224 31.1562 76.2865 30.7734 75.5938 30.0078C74.901 29.2422 74.5547 28.1849 74.5547 26.8359V26.6406C74.5547 25.3542 74.8984 24.3255 75.5859 23.5547C76.2734 22.7786 77.2109 22.3906 78.3984 22.3906C79.4036 22.3906 80.2214 22.6849 80.8516 23.2734C81.487 23.8568 81.8203 24.625 81.8516 25.5781H80.0625C80.0417 25.0938 79.875 24.6953 79.5625 24.3828C79.2552 24.0703 78.862 23.9141 78.3828 23.9141C77.7682 23.9141 77.2943 24.138 76.9609 24.5859C76.6276 25.0286 76.4583 25.7031 76.4531 26.6094V26.9141C76.4531 27.8307 76.6172 28.5156 76.9453 28.9688C77.2786 29.4167 77.7578 29.6406 78.3828 29.6406ZM87.0078 31.1562C85.8047 31.1562 84.8281 30.7786 84.0781 30.0234C83.3333 29.263 82.9609 28.2526 82.9609 26.9922V26.7578C82.9609 25.9141 83.1224 25.1615 83.4453 24.5C83.7734 23.8333 84.2318 23.3151 84.8203 22.9453C85.4089 22.5755 86.0651 22.3906 86.7891 22.3906C87.9401 22.3906 88.8281 22.7578 89.4531 23.4922C90.0833 24.2266 90.3984 25.2656 90.3984 26.6094V27.375H84.875C84.9323 28.0729 85.1641 28.625 85.5703 29.0312C85.9818 29.4375 86.4974 29.6406 87.1172 29.6406C87.987 29.6406 88.6953 29.2891 89.2422 28.5859L90.2656 29.5625C89.9271 30.0677 89.474 30.4609 88.9062 30.7422C88.3438 31.0182 87.7109 31.1562 87.0078 31.1562ZM86.7812 23.9141C86.2604 23.9141 85.8385 24.0964 85.5156 24.4609C85.1979 24.8255 84.9948 25.3333 84.9062 25.9844H88.5234V25.8438C88.4818 25.2083 88.3125 24.7292 88.0156 24.4062C87.7188 24.0781 87.3073 23.9141 86.7812 23.9141ZM96.6172 28.7031C96.6172 28.3646 96.4766 28.1068 96.1953 27.9297C95.9193 27.7526 95.4583 27.5964 94.8125 27.4609C94.1667 27.3255 93.6276 27.1536 93.1953 26.9453C92.2474 26.487 91.7734 25.8229 91.7734 24.9531C91.7734 24.224 92.0807 23.6146 92.6953 23.125C93.3099 22.6354 94.0911 22.3906 95.0391 22.3906C96.0495 22.3906 96.8646 22.6406 97.4844 23.1406C98.1094 23.6406 98.4219 24.2891 98.4219 25.0859H96.5234C96.5234 24.7214 96.388 24.4193 96.1172 24.1797C95.8464 23.9349 95.487 23.8125 95.0391 23.8125C94.6224 23.8125 94.2812 23.9089 94.0156 24.1016C93.7552 24.2943 93.625 24.5521 93.625 24.875C93.625 25.1667 93.7474 25.3932 93.9922 25.5547C94.237 25.7161 94.7318 25.8802 95.4766 26.0469C96.2214 26.2083 96.8047 26.4036 97.2266 26.6328C97.6536 26.8568 97.9688 27.1276 98.1719 27.4453C98.3802 27.763 98.4844 28.1484 98.4844 28.6016C98.4844 29.362 98.1693 29.9792 97.5391 30.4531C96.9089 30.9219 96.0833 31.1562 95.0625 31.1562C94.3698 31.1562 93.7526 31.0312 93.2109 30.7812C92.6693 30.5312 92.2474 30.1875 91.9453 29.75C91.6432 29.3125 91.4922 28.8411 91.4922 28.3359H93.3359C93.362 28.7839 93.5312 29.1302 93.8438 29.375C94.1562 29.6146 94.5703 29.7344 95.0859 29.7344C95.5859 29.7344 95.9661 29.6406 96.2266 29.4531C96.487 29.2604 96.6172 29.0104 96.6172 28.7031Z" fill="black"/>
</svg>
