<svg width="10" height="10" viewBox="0 0 10 10" fill="none" xmlns="http://www.w3.org/2000/svg">
<path d="M9.01794 4.69211C9.22847 4.339 9.45421 4.00281 9.34358 3.56097C9.27618 3.29531 9.09315 3.07848 8.79814 2.91566C8.87259 2.73336 8.96763 2.39584 8.844 2.06445C8.73225 1.76631 8.47177 1.56969 8.18439 1.45497C8.12089 1.07068 7.94862 0.68249 7.64509 0.428704C6.69141 -0.368466 4.18237 0.122571 3.16149 0.489592C2.21377 0.830623 1.57699 0.940912 0.568359 0.940912C0.568359 2.3899 0.568359 3.84908 0.568359 5.29769L1.97352 5.30047C2.64353 5.71557 3.17579 6.3052 3.83001 6.74741C4.21784 7.01047 4.99977 7.51526 5.26989 9.47068C5.30275 9.7096 5.3876 9.8715 5.54167 9.95075C5.74069 10.0538 5.97888 9.97841 6.15858 9.87723C7.47444 9.13892 6.20368 7.85517 6.65982 6.8495C7.05192 5.98569 7.87599 6.50568 8.59631 6.33617C9.29118 6.17244 9.43413 5.8004 9.43135 5.51728C9.42879 5.16531 9.19282 4.82931 9.01794 4.69211Z" fill="#777777"/>
</svg>
