<svg width="8" height="10" viewBox="0 0 8 10" fill="none" xmlns="http://www.w3.org/2000/svg">
<path d="M7.72215 6.17366C7.72215 6.61813 7.31142 6.89803 6.86627 6.89803H6.86283C7.19506 6.95518 7.5896 7.35627 7.5896 7.74565C7.5896 8.17359 7.18197 8.44076 6.753 8.44076H6.38393C6.6745 8.52442 7.06458 8.91414 7.06458 9.28838C7.06458 9.72562 6.65454 10 6.21799 10H2.49665C1.27101 10 0.278442 9.00607 0.278442 7.78043C0.278442 7.78043 0.278442 5.41452 0.278442 5.41177C0.278442 4.54349 0.758715 3.62529 1.51441 3.33162C2.10348 2.94396 3.28746 2.25299 3.53982 0.973292C3.53982 0.474428 3.53982 0.00620496 3.53982 0.00620496C3.53982 0.00620496 5.19478 -0.172821 5.19478 1.38299C5.19478 3.21525 4.04213 3.51271 4.9586 3.55678H6.32885C6.81291 3.55678 7.23121 4.02845 7.23121 4.51354C7.23121 4.93253 6.83391 5.20417 6.50167 5.28955H6.86627C7.31142 5.28989 7.72215 5.72954 7.72215 6.17366Z" fill="#777777"/>
</svg>
