<svg width="14" height="15" viewBox="0 0 14 15" fill="none" xmlns="http://www.w3.org/2000/svg">
<path d="M13.814 13.1841L11.8933 10.3625C11.8933 9.49877 11.8933 7.38827 11.8933 6.84232C11.8933 4.46832 10.2026 2.48944 7.9596 2.04349V0.959498C7.95956 0.429609 7.52999 0 7.00007 0C6.47014 0 6.04057 0.429609 6.04057 0.959498V2.04353C3.79761 2.48952 2.10692 4.4684 2.10692 6.84235C2.10692 7.77172 2.10692 9.82387 2.10692 10.3625L0.186161 13.1841C-0.0161627 13.4813 -0.0375589 13.866 0.130554 14.1838C0.298667 14.5016 0.628701 14.7004 0.988244 14.7004H13.0119C13.3714 14.7004 13.7015 14.5016 13.8696 14.1838C14.0377 13.8659 14.0163 13.4812 13.814 13.1841Z" fill="#767676"/>
</svg>
